<svg width="19" height="19" viewBox="0 0 19 19" fill="none" xmlns="http://www.w3.org/2000/svg">
<g clip-path="url(#clip0)">
<path d="M18.1795 6.08232C18.255 5.87968 18.3265 5.60551 18.3464 5.28763C18.3742 4.72738 18.2352 3.94063 17.4444 3.22541C17.4961 2.85986 17.4961 2.27973 17.1742 1.70358C16.7491 0.94068 15.9186 0.424131 14.7028 0.165857C13.8882 -0.00897479 12.8193 -0.0447358 11.524 0.0546004C8.91344 0.00294557 6.37044 0.324795 6.22739 0.344662L5.29363 0.455919C5.02344 0.265193 4.69364 0.153937 4.34 0.153937H1.9162C1.00231 0.153937 0.263245 0.896972 0.263245 1.80689V8.26375C0.263245 9.17764 1.00628 9.9167 1.9162 9.9167H4.34C4.62609 9.9167 4.89231 9.84518 5.12675 9.71803C5.29363 10.0836 5.53999 10.5008 5.90554 10.8862C5.92541 10.9061 5.94528 10.926 5.96912 10.9419C7.21678 11.8995 8.68696 15.3484 9.20748 16.755C9.15582 17.1921 9.10417 18.1378 9.54125 18.6503C9.73595 18.8768 10.0061 19 10.3081 19C10.6141 19 11.671 18.9285 12.3306 18.0186C12.9544 17.1524 12.9902 15.857 12.4339 14.1643C11.9651 12.7418 11.9213 12.11 11.9372 11.8557C12.1518 11.9034 12.3624 11.9471 12.565 11.9829H12.569C12.6048 11.9908 13.4789 12.1855 14.524 12.2332C16.01 12.3047 17.0868 12.0465 17.7146 11.4703C18.5808 10.6796 18.4775 9.67035 18.2193 9.02665C18.4418 8.73659 18.712 8.26375 18.7358 7.65978C18.7517 7.11145 18.5689 6.58298 18.1795 6.08232ZM4.34 8.84785H1.9162C1.59435 8.84785 1.33608 8.5856 1.33608 8.26772V1.81087C1.33608 1.48902 1.59832 1.23074 1.9162 1.23074H4.34C4.66185 1.23074 4.92013 1.49299 4.92013 1.81087V8.26772C4.92013 8.58957 4.66185 8.84785 4.34 8.84785ZM17.1226 9.23327C17.1226 9.23724 17.2617 9.45578 17.3093 9.75379C17.3689 10.1233 17.2656 10.4293 16.9875 10.6836C16.2286 11.375 14.0432 11.216 12.8233 10.9458C12.8074 10.9419 12.7915 10.9379 12.7717 10.9339C12.5531 10.8942 12.3187 10.8465 12.0803 10.7948C11.826 10.7034 11.4763 10.7154 11.2141 10.9498C10.6856 11.4187 10.7452 12.4836 11.4088 14.506C11.8458 15.8332 11.8617 16.8345 11.4565 17.3947C11.1147 17.8676 10.5505 17.9272 10.3359 17.9312C10.2406 17.7722 10.2128 17.2279 10.2843 16.7789C10.2962 16.6914 10.2883 16.6 10.2604 16.5126C10.1849 16.31 8.4406 11.5339 6.65652 10.1193C6.19163 9.61472 5.98899 9.02268 5.91746 8.75646C5.96514 8.60149 5.99296 8.43461 5.99296 8.26375V1.81087C5.99296 1.69166 5.98104 1.57246 5.9572 1.4612L6.35852 1.41352H6.36249C6.38633 1.40955 8.97305 1.07578 11.528 1.13141C11.5439 1.13141 11.5637 1.13141 11.5836 1.13141C12.7876 1.03604 13.7611 1.06386 14.4802 1.21882C15.3703 1.40955 15.9584 1.74332 16.2286 2.21616C16.5107 2.70489 16.3557 3.20952 16.3438 3.2572C16.2604 3.47971 16.3358 3.7221 16.5266 3.86514C17.7027 4.74725 17.1623 5.77637 17.0908 5.90352C16.9597 6.11014 16.9915 6.37239 17.1623 6.55119C17.504 6.9088 17.6709 7.26641 17.659 7.61608C17.6431 8.1366 17.2418 8.526 17.214 8.54984C17.0153 8.72069 16.9795 9.01076 17.1226 9.23327Z" fill="black"/>
</g>
<defs>
<clipPath id="clip0">
<rect width="19" height="19" fill="white"/>
</clipPath>
</defs>
</svg>
