<svg width="19" height="19" viewBox="0 0 19 19" fill="none" xmlns="http://www.w3.org/2000/svg">
<g clip-path="url(#clip0)">
<path d="M18.1805 12.917C18.5699 12.4203 18.7566 11.8879 18.7328 11.3396C18.7089 10.7357 18.4388 10.2629 18.2163 9.97281C18.4745 9.32915 18.5739 8.31598 17.7117 7.52928C17.0799 6.95316 16.0071 6.6949 14.5212 6.76642C13.4762 6.81409 12.6021 7.00878 12.5663 7.01673H12.5624C12.3637 7.05249 12.1531 7.09619 11.9386 7.14387C11.9227 6.88959 11.9664 6.25784 12.4352 4.83542C12.9915 3.14283 12.9597 1.84755 12.3319 0.981389C11.6723 0.0715182 10.6194 0 10.3095 0C10.0115 0 9.73738 0.12317 9.5427 0.349645C9.10167 0.862192 9.15332 1.80782 9.20894 2.24488C8.68448 3.6514 7.21438 7.10017 5.97076 8.05772C5.94692 8.07361 5.92705 8.09348 5.90719 8.11334C5.54165 8.49874 5.29531 8.91593 5.12843 9.28147C4.89401 9.15433 4.62781 9.08281 4.34173 9.08281H1.91806C1.00422 9.08281 0.265198 9.82581 0.265198 10.7357V17.1922C0.265198 18.106 1.00819 18.845 1.91806 18.845H4.34173C4.69535 18.845 5.02513 18.7338 5.29531 18.5431L6.22902 18.6543C6.37206 18.6742 8.91493 18.996 11.5253 18.9444C11.9982 18.9801 12.4432 19 12.8564 19C13.5676 19 14.1874 18.9444 14.7039 18.8331C15.9197 18.5749 16.7501 18.0583 17.1713 17.2995C17.4931 16.7194 17.4931 16.1432 17.4415 15.7777C18.2322 15.0625 18.3712 14.2719 18.3434 13.7156C18.3275 13.3938 18.256 13.1196 18.1805 12.917ZM1.91806 17.7723C1.59623 17.7723 1.33797 17.51 1.33797 17.1922V10.7317C1.33797 10.4099 1.6002 10.1516 1.91806 10.1516H4.34173C4.66357 10.1516 4.92183 10.4138 4.92183 10.7317V17.1882C4.92183 17.51 4.65959 17.7683 4.34173 17.7683H1.91806V17.7723ZM17.1634 12.4521C16.9965 12.6269 16.9647 12.8931 17.0918 13.0997C17.0918 13.1037 17.2547 13.3818 17.2746 13.7633C17.3024 14.2838 17.0521 14.7447 16.5276 15.138C16.3409 15.2811 16.2654 15.5274 16.3449 15.7499C16.3449 15.7539 16.5157 16.2783 16.2376 16.775C15.9714 17.2518 15.3794 17.5935 14.4814 17.7842C13.7623 17.9391 12.7849 17.967 11.5849 17.8716C11.569 17.8716 11.5492 17.8716 11.5293 17.8716C8.97452 17.9272 6.39192 17.5935 6.36411 17.5895H6.36014L5.95884 17.5418C5.98268 17.4306 5.9946 17.3114 5.9946 17.1922V10.7317C5.9946 10.5609 5.96679 10.394 5.91911 10.239C5.99063 9.97282 6.18929 9.3808 6.65813 8.8762C8.44211 7.46173 10.1864 2.68988 10.2619 2.48327C10.2936 2.39983 10.3016 2.30845 10.2857 2.21706C10.2181 1.77206 10.242 1.22773 10.3373 1.06483C10.5479 1.0688 11.1161 1.1284 11.4578 1.60121C11.8631 2.16144 11.8472 3.16269 11.4101 4.48975C10.7426 6.51213 10.687 7.57696 11.2154 8.0458C11.4777 8.28022 11.8273 8.29214 12.0816 8.20075C12.324 8.14513 12.5544 8.09745 12.7729 8.06169C12.7888 8.05772 12.8087 8.05374 12.8246 8.04977C14.0444 7.78356 16.2296 7.62066 16.9885 8.312C17.6322 8.90004 17.1753 9.6788 17.1236 9.76223C16.9766 9.98473 17.0203 10.2748 17.219 10.4536C17.223 10.4575 17.6401 10.8509 17.66 11.3793C17.6759 11.733 17.509 12.0945 17.1634 12.4521Z" fill="black"/>
</g>
<defs>
<clipPath id="clip0">
<rect width="19" height="19" fill="white"/>
</clipPath>
</defs>
</svg>
