<svg width="19" height="19" viewBox="0 0 19 19" fill="none" xmlns="http://www.w3.org/2000/svg">
<g clip-path="url(#clip0)">
<path d="M14.6562 9.06647L5.1561 0.16013C4.98154 -0.00255963 4.73216 -0.0441225 4.51366 0.0485034C4.29635 0.143504 4.15622 0.357257 4.15622 0.593571V6.163C4.15622 6.16656 4.15859 6.16894 4.15859 6.1725C4.15978 6.21882 4.17403 6.26394 4.18591 6.30907C4.19422 6.33875 4.19422 6.37082 4.2061 6.39932C4.2156 6.42188 4.2346 6.43969 4.24766 6.46107C4.27497 6.50619 4.3011 6.55251 4.3391 6.58932C4.34147 6.59051 4.34147 6.59407 4.34385 6.59644L7.44444 9.49991L4.34503 12.4034C4.34266 12.4058 4.34266 12.4081 4.34028 12.4105C4.30228 12.4473 4.27616 12.4936 4.24885 12.5388C4.23578 12.5601 4.21678 12.5779 4.20728 12.6005C4.19541 12.6278 4.19422 12.6611 4.18709 12.6908C4.17522 12.7359 4.15978 12.781 4.15978 12.8273C4.15859 12.8309 4.15622 12.8333 4.15622 12.8368V18.4062C4.15622 18.6426 4.29635 18.8563 4.51366 18.9513C4.58966 18.9834 4.67041 19 4.74998 19C4.89841 19 5.04329 18.9454 5.1561 18.8397L14.6562 9.93335C14.7749 9.82054 14.8438 9.66379 14.8438 9.49991C14.8438 9.33603 14.7749 9.17928 14.6562 9.06647ZM5.34373 17.0359V13.0945L8.71864 9.93335C8.83739 9.82173 8.90627 9.66379 8.90627 9.49991C8.90627 9.33603 8.83739 9.17809 8.71864 9.06647L5.34373 5.90531V1.96396L13.382 9.49991L5.34373 17.0359Z" fill="black"/>
</g>
<defs>
<clipPath id="clip0">
<rect width="19" height="19" fill="white"/>
</clipPath>
</defs>
</svg>
